#!OML:ASF E:\Style4\Style4.ASF
:FULLY-SPECIFIED
:DEGREES
3057
root 1.15008 17.5659 -1.16778 16.0956 -17.1607 -0.849592
lowerback 21.0838 4.28831 -4.37841
upperback 9.108 4.37748 -4.32122
thorax -1.80451 2.08826 -3.1087
lowerneck 2.52317 1.26886 -4.16135
upperneck -14.4353 2.10052 4.94985
head -4.8273 0.970252 2.11671
rclavicle -4.45278e-014 1.35174e-014
rhumerus -37.1236 13.0664 -96.8266
rradius 69.0459
rwrist 12.7881
rhand -1.755 -0.214219
rfingers 7.12502
rthumb 23.9084 -28.7459
lclavicle -4.45278e-014 1.35174e-014
lhumerus -40.9666 -12.7353 87.7809
lradius 76.4732
lwrist -2.24658
lhand -16.5616 30.2559
lfingers 7.12502
lthumb 9.65835 60.0145
rfemur -39.3256 10.9244 12.8005
rtibia 37.6124
rfoot -16.3535 -5.43723
rtoes -14.353
lfemur -36.8107 5.89786 -23.9606
ltibia 42.8865
lfoot -24.2476 16.2012
ltoes -9.1966
3058
root 1.16314 17.5659 -1.13579 15.9429 -17.3723 -0.585153
lowerback 20.8916 4.38642 -4.52765
upperback 8.95928 4.48413 -4.35697
thorax -1.87446 2.13954 -3.07997
lowerneck 2.54282 1.26686 -4.19703
upperneck -14.7845 2.12143 5.05478
head -4.93987 0.974587 2.15587
rclavicle 2.22639e-014 1.94809e-014
rhumerus -37.2214 12.9563 -96.8163
rradius 68.7236
rwrist 12.8496
rhand -2.18682 0.0305067
rfingers 7.12502
rthumb 23.4942 -28.5548
lclavicle 2.22639e-014 1.94809e-014
lhumerus -40.925 -12.7399 87.8412
lradius 76.269
lwrist -2.45458
lhand -16.0885 30.8985
lfingers 7.12502
lthumb 10.1148 60.6354
rfemur -39.298 10.9948 12.4339
rtibia 37.8302
rfoot -16.514 -5.46283
rtoes -14.544
lfemur -36.5634 6.08332 -24.3881
ltibia 42.7979
lfoot -24.2277 16.335
ltoes -9.96299
3059
root 1.17697 17.565 -1.10358 15.7093 -17.4518 -0.300375
lowerback 20.7188 4.40306 -4.6108
upperback 8.86141 4.49969 -4.41513
thorax -1.89429 2.14806 -3.09076
lowerneck 2.64889 1.26754 -4.1499
upperneck -15.2282 2.15001 5.13508
head -5.09592 0.977682 2.17338
rclavicle -2.0276e-014 5.08889e-014
rhumerus -37.3033 12.8902 -96.8782
rradius 68.4794
rwrist 12.9352
rhand -2.25399 -0.00296355
rfingers 7.12502
rthumb 23.4298 -28.5965
lclavicle -2.0276e-014 5.08889e-014
lhumerus -40.8131 -12.6844 87.8429
lradius 76.0328
lwrist -2.55828
lhand -15.6124 31.6703
lfingers 7.12502
lthumb 10.5741 61.3843
rfemur -39.1552 10.9996 12.0862
rtibia 38.0494
rfoot -16.6828 -5.52794
rtoes -14.6155
lfemur -36.2348 6.1641 -24.7857
ltibia 42.6835
lfoot -24.248 16.4209
ltoes -10.6228
3060
root 1.19177 17.563 -1.07103 15.5181 -17.3602 -0.107097
lowerback 20.5554 4.34164 -4.4967
upperback 8.76376 4.45336 -4.44952
thorax -1.90855 2.13094 -3.17284
lowerneck 2.63043 1.26393 -4.11728
upperneck -15.5691 2.17525 5.23316
head -5.19946 0.980694 2.19935
rclavicle -1.90833e-014 1.98785e-015
rhumerus -37.3391 12.8497 -96.9364
rradius 68.2292
rwrist 12.895
rhand -2.27099 -0.0707307
rfingers 7.12502
rthumb 23.4135 -28.6664
lclavicle -1.90833e-014 1.98785e-015
lhumerus -40.7258 -12.6539 87.8346
lradius 75.4666
lwrist -2.26547
lhand -15.8894 30.8584
lfingers 7.12502
lthumb 10.3068 60.5859
rfemur -38.9689 10.875 11.8912
rtibia 38.2585
rfoot -16.8769 -5.5868
rtoes -15.0768
lfemur -35.9238 6.01175 -25.0041
ltibia 42.5709
lfoot -24.3665 16.4483
ltoes -10.771
3061
root 1.20516 17.5591 -1.04155 15.3144 -17.3499 0.047189
lowerback 20.4768 4.32027 -4.42436
upperback 8.62578 4.44168 -4.45203
thorax -2.01395 2.12906 -3.2135
lowerneck 2.65416 1.26599 -4.16084
upperneck -15.869 2.19576 5.30464
head -5.29818 0.986808 2.22963
rclavicle 5.32743e-014 -3.26007e-014
rhumerus -37.425 12.8491 -96.9529
rradius 67.9432
rwrist 12.8816
rhand -2.43948 -0.00436191
rfingers 7.12502
rthumb 23.2518 -28.6205
lclavicle 5.32743e-014 -3.26007e-014
lhumerus -40.7389 -12.589 87.8911
lradius 74.925
lwrist -1.94059
lhand -16.0577 30.0554
lfingers 7.12502
lthumb 10.1445 59.7909
rfemur -38.7784 10.8579 11.706
rtibia 38.4704
rfoot -17.1153 -5.59975
rtoes -15.2022
lfemur -35.594 5.92448 -25.1891
ltibia 42.4825
lfoot -24.6475 16.3044
ltoes -9.94456
3062
root 1.21722 17.5543 -1.0119 15.0821 -17.4257 0.195071
lowerback 20.3937 4.35263 -4.39148
upperback 8.51988 4.49113 -4.48917
thorax -2.08007 2.15637 -3.28108
lowerneck 2.62492 1.25758 -4.04656
upperneck -16.1829 2.20994 5.32652
head -5.39007 0.984292 2.21876
rclavicle -5.92378e-014 3.22031e-014
rhumerus -37.4099 12.8132 -97.012
rradius 67.5454
rwrist 12.9799
rhand -2.75282 0.0440935
rfingers 7.12502
rthumb 22.9512 -28.6097
lclavicle -5.92378e-014 3.22031e-014
lhumerus -40.6891 -12.6755 87.8975
lradius 74.541
lwrist -1.76017
lhand -15.9408 30.073
lfingers 7.12502
lthumb 10.2572 59.8029
rfemur -38.5704 10.8956 11.5192
rtibia 38.6573
rfoot -17.3153 -5.61701
rtoes -15.3957
lfemur -35.234 5.97177 -25.4142
ltibia 42.4227
lfoot -24.7328 16.2466
ltoes -9.68052
3063
root 1.22893 17.5487 -0.983005 14.9022 -17.4038 0.339575
lowerback 20.2298 4.34016 -4.32124
upperback 8.43464 4.49758 -4.54829
thorax -2.07936 2.16387 -3.37631
lowerneck 2.48273 1.24834 -3.87738
upperneck -16.4648 2.23923 5.40886
head -5.45337 0.983479 2.21734
rclavicle 1.43125e-014 -3.97569e-015
rhumerus -37.2814 12.7673 -97.1143
rradius 67.0541
rwrist 13.0387
rhand -3.10436 0.0993198
rfingers 7.12502
rthumb 22.6138 -28.596
lclavicle 1.43125e-014 -3.97569e-015
lhumerus -40.5605 -12.8103 87.8172
lradius 74.104
lwrist -1.64079
lhand -15.8459 30.1197
lfingers 7.12502
lthumb 10.3488 59.845
rfemur -38.4089 10.9187 11.3285
rtibia 38.8309
rfoot -17.4748 -5.71132
rtoes -15.4433
lfemur -34.949 6.00061 -25.6433
ltibia 42.3645
lfoot -24.6017 16.3903
ltoes -10.7704
3064
root 1.2402 17.5455 -0.953071 14.7107 -17.3775 0.499537
lowerback 20.0518 4.30424 -4.32348
upperback 8.34372 4.46389 -4.55151
thorax -2.08864 2.14882 -3.36157
lowerneck 2.4892 1.26229 -3.86702
upperneck -16.8483 2.28624 5.48284
head -5.5765 0.998212 2.23887
rclavicle -2.26615e-014 4.73108e-014
rhumerus -37.2523 12.8345 -97.1609
rradius 66.6881
rwrist 12.9829
rhand -3.23987 0.105275
rfingers 7.12502
rthumb 22.4837 -28.6058
lclavicle -2.26615e-014 4.73108e-014
lhumerus -40.4394 -12.7538 87.7699
lradius 73.9
lwrist -1.76975
lhand -14.9208 31.0798
lfingers 7.12502
lthumb 11.2411 60.7586
rfemur -38.2184 10.9583 11.117
rtibia 38.9899
rfoot -17.6949 -5.79568
rtoes -15.3235
lfemur -34.6502 6.00717 -25.8811
ltibia 42.2936
lfoot -24.5681 16.4758
ltoes -11.3331
3065
root 1.25225 17.5468 -0.921388 14.4721 -17.3986 0.686318
lowerback 19.8845 4.27959 -4.35284
upperback 8.25283 4.43794 -4.56659
thorax -2.10364 2.13708 -3.34703
lowerneck 2.61628 1.27875 -3.71085
upperneck -17.2858 2.32036 5.38399
head -5.73431 1.00662 2.18176
rclavicle 6.63941e-014 -8.42847e-014
rhumerus -37.3422 12.8619 -97.2536
rradius 66.4062
rwrist 12.9948
rhand -3.48303 0.0444192
rfingers 7.12502
rthumb 22.2503 -28.6947
lclavicle 6.63941e-014 -8.42847e-014
lhumerus -40.363 -12.6455 87.7372
lradius 73.6975
lwrist -1.86121
lhand -14.08 31.8807
lfingers 7.12502
lthumb 12.0519 61.5137
rfemur -37.9783 10.9487 10.9018
rtibia 39.1475
rfoot -17.9004 -5.79595
rtoes -15.2487
lfemur -34.2671 5.97642 -26.1192
ltibia 42.1892
lfoot -24.7811 16.3124
ltoes -10.3457
3066
root 1.26376 17.5454 -0.890351 14.2772 -17.4454 0.901785
lowerback 19.6765 4.26226 -4.43184
upperback 8.12064 4.41297 -4.60603
thorax -2.14354 2.12557 -3.32993
lowerneck 2.70512 1.3191 -3.53577
upperneck -17.6043 2.38758 5.29634
head -5.85014 1.03059 2.12224
rclavicle 3.29983e-014 -2.22639e-014
rhumerus -37.4573 12.8757 -97.3896
rradius 66.0774
rwrist 13.099
rhand -3.82556 0.157164
rfingers 7.12502
rthumb 21.9215 -28.6209
lclavicle 3.29983e-014 -2.22639e-014
lhumerus -40.3516 -12.7149 87.8068
lradius 73.1453
lwrist -0.899111
lhand -14.973 31.2011
lfingers 7.12502
lthumb 11.1908 60.8827
rfemur -37.8063 10.8981 10.6591
rtibia 39.3119
rfoot -18.0372 -5.73075
rtoes -15.3057
lfemur -33.939 5.9837 -26.4017
ltibia 42.0677
lfoot -24.8388 16.236
ltoes -10.0827
